<svg width="30" height="30" viewBox="0 0 30 30" fill="none" xmlns="http://www.w3.org/2000/svg">
<path d="M15 0C6.72896 0 0 6.72896 0 15C0 23.271 6.72896 30 15 30C23.271 30 30 23.271 30 15C30 6.72896 23.271 0 15 0ZM15 28.5938C7.50439 28.5938 1.40625 22.4956 1.40625 15C1.40625 7.50439 7.50439 1.40625 15 1.40625C22.4956 1.40625 28.5938 7.50439 28.5938 15C28.5938 22.4956 22.4956 28.5938 15 28.5938ZM22.8449 17.7284C22.8448 17.7284 22.8448 17.7284 22.8449 17.7284L20.0893 16.1375C19.6673 15.8939 19.175 15.8293 18.703 15.9558C18.231 16.0822 17.8369 16.3843 17.5933 16.8063C17.452 17.0511 17.2044 17.3592 16.8278 17.4362C16.4844 17.5064 16.1811 17.4383 15.9008 17.2279C14.8652 16.4507 13.5495 15.1349 12.7721 14.0992C12.5618 13.8189 12.4937 13.5156 12.5639 13.1723C12.6409 12.7956 12.9489 12.5481 13.1938 12.4068C14.0663 11.9029 14.3663 10.7832 13.8626 9.91072L12.2716 7.15506C11.816 6.36592 10.8696 6.03492 10.0215 6.36791L9.98853 6.38086C8.6717 6.89783 7.70877 7.29457 7.31057 7.69277C6.58723 8.41617 5.85457 9.76225 6.47221 12.0673C7.6718 16.5444 13.4556 22.3282 17.9327 23.5279C18.5406 23.6907 19.0818 23.7597 19.5625 23.7597C20.9045 23.7597 21.7747 23.2221 22.3073 22.6895C22.7055 22.2913 23.1021 21.3286 23.619 20.0121L23.6322 19.9786C23.9651 19.1304 23.634 18.1841 22.8449 17.7284ZM22.323 19.4646L22.3099 19.4982C22.0605 20.1333 21.5416 21.455 21.3128 21.6951C20.6416 22.3663 19.6268 22.5259 18.2965 22.1695C14.285 21.0946 8.9052 15.7148 7.83035 11.7033C7.47393 10.3731 7.63354 9.3583 8.30408 8.68781C8.54496 8.45824 9.86695 7.93928 10.5022 7.6899L10.5353 7.67689C10.5879 7.65615 10.6416 7.64631 10.6941 7.64631C10.8394 7.64631 10.9753 7.7226 11.0536 7.85824L12.6445 10.6138C12.7605 10.8149 12.6915 11.0728 12.4905 11.1888C11.7911 11.5926 11.3279 12.1969 11.186 12.8905C11.0348 13.6298 11.1943 14.3396 11.6473 14.9433C12.5079 16.0901 13.9099 17.4921 15.0567 18.3526C15.6602 18.8055 16.37 18.965 17.1094 18.8139C17.803 18.672 18.4073 18.2087 18.8111 17.5093C18.8669 17.4127 18.9577 17.3433 19.0669 17.3141C19.176 17.2849 19.2894 17.2995 19.3862 17.3553L22.1417 18.9462C22.3264 19.053 22.401 19.2662 22.323 19.4646Z" fill="#686868"/>
</svg>
