<svg width="30" height="30" viewBox="0 0 30 30" fill="none" xmlns="http://www.w3.org/2000/svg">
<path d="M15 0C6.72896 0 0 6.72896 0 15C0 23.271 6.72896 30 15 30C23.271 30 30 23.271 30 15C30 6.72896 23.271 0 15 0ZM15 28.5938C7.50439 28.5938 1.40625 22.4956 1.40625 15C1.40625 7.50439 7.50439 1.40625 15 1.40625C22.4956 1.40625 28.5938 7.50439 28.5938 15C28.5938 22.4956 22.4956 28.5938 15 28.5938ZM22.0495 8.81836H7.95041C7.0074 8.81836 6.24018 9.58559 6.24018 10.5286V19.4715C6.24018 20.4145 7.00734 21.1817 7.95041 21.1817H22.0495C22.9925 21.1817 23.7598 20.4145 23.7598 19.4715V10.5286C23.7598 9.58559 22.9925 8.81836 22.0495 8.81836ZM20.9896 10.2246L15 14.9811L9.01031 10.2246H20.9896ZM22.0495 19.7754H7.95041C7.78283 19.7754 7.64643 19.639 7.64643 19.4714V10.9372L14.5627 16.4295C14.6907 16.5312 14.8454 16.582 14.9999 16.582C15.1545 16.582 15.3092 16.5312 15.4372 16.4295L22.3535 10.9372V19.4714C22.3535 19.639 22.2171 19.7754 22.0495 19.7754Z" fill="#686868"/>
</svg>
