<svg width="30" height="30" viewBox="0 0 30 30" fill="none" xmlns="http://www.w3.org/2000/svg">
<path fill-rule="evenodd" clip-rule="evenodd" d="M27.0583 23.9232C28.9068 21.4296 30 18.3425 30 15C30 6.71567 23.2842 0 15 0C6.71567 0 0 6.71567 0 15C0 23.2842 6.71567 30 15 30C19.3464 30 23.2609 28.1515 26.0006 25.1976C26.3758 24.7928 26.7291 24.3675 27.0583 23.9232ZM26.2267 22.5C27.6625 20.3548 28.4999 17.7752 28.4999 15C28.4999 7.54416 22.4558 1.49997 14.9998 1.49997C7.54416 1.49997 1.49997 7.54416 1.49997 15C1.49997 17.7753 2.33733 20.3548 3.77335 22.5C5.58499 19.7935 8.34939 17.7786 11.5868 16.9353C10.0236 15.8521 8.99997 14.0457 8.99997 11.9999C8.99997 8.68623 11.6863 5.99987 15 5.99987C18.3137 5.99987 21 8.68623 21 11.9999C21 14.0455 19.9762 15.8521 18.4132 16.9351C21.6504 17.7786 24.415 19.7934 26.2267 22.5ZM25.2604 23.7738C23.1553 20.3121 19.3478 17.9999 15.0002 17.9999C10.6524 17.9999 6.84467 20.3121 4.73956 23.7739C7.21555 26.6667 10.8936 28.5 15 28.5C19.1064 28.5 22.7844 26.6665 25.2604 23.7738ZM15 16.5C17.4853 16.5 19.5001 14.4854 19.5001 11.9999C19.5001 9.51457 17.4855 7.49984 15 7.49984C12.5145 7.49984 10.4999 9.51473 10.4999 12.0001C10.4999 14.4854 12.5147 16.5 15 16.5Z" fill="#686868"/>
</svg>
