<svg height="512pt" viewBox="0 0 512 512" width="512pt" xmlns="http://www.w3.org/2000/svg"><path d="M477.512 250.828C459.68 241.91 436.414 237 412 237s-47.68 4.91-65.512 13.828C324.246 261.945 312 278.344 312 297c0 .594.012 1.184.035 1.773-.023.407-.035.813-.035 1.227v24.71c-17.102-7.57-38.129-11.71-60-11.71-24.414 0-47.68 4.91-65.512 13.828C164.246 337.945 152 354.344 152 373c0 .238.012.473.016.71-.004.099-.016.192-.016.29v78c0 18.656 12.246 35.055 34.488 46.172C204.32 507.09 227.586 512 252 512s47.68-4.91 65.512-13.828c5.441-2.719 10.277-5.758 14.488-9.063 4.21 3.305 9.047 6.344 14.488 9.063C364.32 507.09 387.586 512 412 512s47.68-4.91 65.512-13.828C499.754 487.055 512 470.656 512 452V297c0-18.656-12.246-35.055-34.488-46.172zM299.625 462.395C287.418 468.5 270.059 472 252 472s-35.418-3.5-47.625-9.605C194.152 457.285 192 452.69 192 452v-30.29c16.992 7.298 38.023 11.29 60 11.29.746 0 1.492-.004 2.234-.012 11.047-.133 19.895-9.187 19.766-20.234-.129-11.043-9.21-19.883-20.234-19.766-.586.008-1.176.012-1.766.012-18.059 0-35.414-3.5-47.621-9.605C194.152 378.285 192 373.69 192 373s2.152-5.285 12.375-10.395C216.582 356.5 233.941 353 252 353c17.848 0 35.117 3.637 47.379 9.98C309.008 367.96 312 372.8 312 374v78c0 .691-2.152 5.285-12.375 10.395zM472 452c0 .691-2.152 5.285-12.375 10.395C447.418 468.5 430.059 472 412 472s-35.418-3.5-47.625-9.605C354.152 457.285 352 452.69 352 452v-30.29c16.992 7.298 38.023 11.29 60 11.29.754 0 1.504-.004 2.25-.016 11.043-.136 19.887-9.203 19.75-20.246-.14-11.047-9.164-19.898-20.25-19.75-.582.008-1.164.012-1.75.012-18.059 0-35.418-3.5-47.625-9.605C354.152 378.285 352 373.69 352 373v-27.27c16.988 7.293 38.031 11.27 60 11.27.754 0 1.504-.004 2.25-.016 11.043-.136 19.887-9.203 19.75-20.246-.137-10.96-9.066-19.75-19.992-19.75h-.258c-.582.008-1.164.012-1.75.012-18.059 0-35.414-3.5-47.621-9.605C354.152 302.285 352 297.69 352 297s2.152-5.285 12.375-10.395C376.582 280.5 393.941 277 412 277s35.418 3.5 47.625 9.605C469.848 291.715 472 296.31 472 297zm40-372v112c0 11.047-8.953 20-20 20s-20-8.953-20-20V80c0-22.055-17.945-40-40-40H80c-22.055 0-40 17.945-40 40v206c0 22.055 17.945 40 40 40h15c11.047 0 20 8.953 20 20s-8.953 20-20 20H80c-44.113 0-80-35.887-80-80V80C0 35.887 35.887 0 80 0h352c44.113 0 80 35.887 80 80zM311.965 185.184c.023-.766.035-1.536.035-2.305 0-34.738-25.121-63-56-63s-56 28.262-56 63c0 23.527 11.555 44.941 30.152 55.883 9.52 5.601 12.696 17.86 7.098 27.379-3.727 6.336-10.402 9.863-17.258 9.863a19.89 19.89 0 01-10.12-2.766C179.108 255.145 160 220.52 160 182.878c0-56.792 43.066-103 96-103s96 46.208 96 103c0 1.2-.02 2.395-.059 3.583a111.362 111.362 0 01-.765 9.973c-1.348 10.964-11.324 18.761-22.285 17.418-10.965-1.348-18.762-11.325-17.418-22.29.257-2.093.422-4.242.492-6.378zM97 157c11.047 0 20 8.953 20 20s-8.953 20-20 20-20-8.953-20-20 8.953-20 20-20zm320 40c-11.047 0-20-8.953-20-20s8.953-20 20-20 20 8.953 20 20-8.953 20-20 20zm0 0"/></svg>