<svg xmlns="http://www.w3.org/2000/svg" viewBox="0 0 512 512"><path d="M492 352c11.046 0 20-8.954 20-20V80c0-44.112-35.888-80-80-80H80C35.888 0 0 35.888 0 80v352c0 44.112 35.888 80 80 80h352c44.112 0 80-35.888 80-80 0-11.046-8.954-20-20-20s-20 8.954-20 20c0 22.056-17.944 40-40 40H196V192h276v140c0 11.046 8.954 20 20 20zM156 232h-56c-11.046 0-20 8.954-20 20s8.954 20 20 20h56v40h-35c-11.046 0-20 8.954-20 20s8.954 20 20 20h35v40h-56c-11.046 0-20 8.954-20 20s8.954 20 20 20h56v40H80c-22.056 0-40-17.944-40-40V192h116v40zm280-80V97c0-11.046-8.954-20-20-20s-20 8.954-20 20v55h-40v-35c0-11.046-8.954-20-20-20s-20 8.954-20 20v35h-40V97c0-11.046-8.954-20-20-20s-20 8.954-20 20v55h-40v-35c0-11.046-8.954-20-20-20s-20 8.954-20 20v35h-40V97c0-11.046-8.954-20-20-20s-20 8.954-20 20v55H40V80c0-22.056 17.944-40 40-40h352c22.056 0 40 17.944 40 40v72h-36z"/></svg>