<svg xmlns="http://www.w3.org/2000/svg" viewBox="0 0 512.001 512.001"><path d="M507.519 116.384A20 20 0 00492 109h-7.208L381.65 5.858c-7.811-7.811-20.475-7.811-28.285 0l-43.359 43.359-43.36-43.359c-7.811-7.811-20.475-7.811-28.285 0L135.219 109h-5.483l-1.484-13.632-.053-.438C121.099 40.811 74.583 0 20 0 8.954 0 0 8.954 0 20s8.954 20 20 20c34.506 0 63.923 25.749 68.512 59.928l23.775 218.42C91.5 327.785 77 348.724 77 373c0 .169.021.332.025.5-.004.168-.025.331-.025.5 0 33.084 26.916 60 60 60h8.157A58.718 58.718 0 00142 453c0 32.533 26.468 59 59 59s59-26.467 59-59a58.718 58.718 0 00-3.157-19h86.314A58.718 58.718 0 00340 453c0 32.533 26.468 59 59 59s59-26.467 59-59-26.468-59-59-59H137c-11.028 0-20-8.972-20-20 0-.169-.021-.332-.025-.5.004-.168.025-.331.025-.5 0-11.028 8.972-20 20-20h255.331c35.503 0 68.085-21.966 83.006-55.962 4.439-10.114-.161-21.913-10.275-26.352-10.113-4.44-21.913.161-26.352 10.275C430.299 300.125 411.661 313 392.331 313h-240.39L134.09 149h333.309l-9.786 46.917c-2.255 10.813 4.683 21.407 15.495 23.662a20.04 20.04 0 004.104.425c9.271 0 17.59-6.485 19.559-15.92l14.809-71a20.009 20.009 0 00-4.061-16.7zM399 434c10.477 0 19 8.523 19 19s-8.523 19-19 19-19-8.523-19-19 8.523-19 19-19zm-198 0c10.477 0 19 8.524 19 19 0 10.477-8.523 19-19 19s-19-8.523-19-19 8.523-19 19-19zm49.223-325h-58.435l60.716-60.716 29.217 29.218L250.223 109zm56.569 0l60.716-60.716L428.223 109H306.792z"/></svg>