<svg xmlns="http://www.w3.org/2000/svg" viewBox="0 0 512.001 512.001"><path d="M405 257.002c-33.084 0-60 26.916-60 60s26.916 60 60 60h85c.339 0 .67-.034 1.005-.051.332.016.659.05.995.05 11.046 0 20-8.954 20-20v-157c0-26.626-13.087-50.241-33.155-64.79l-68.04-111.62a19.992 19.992 0 00-12.437-9.044 19.993 19.993 0 00-15.181 2.457L333.01 48.12 310.382 9.826a20.003 20.003 0 00-27.606-6.917L90.109 120.001H60c-10.861 0-19.728-8.702-19.994-19.5.266-10.798 9.133-19.5 19.994-19.5h37c11.046 0 20-8.954 20-20s-8.954-20-20-20H60c-28.298 0-52.081 19.694-58.37 46.095A19.911 19.911 0 000 95.001v337c0 44.112 35.888 80 80 80h352c34.49 0 64.993-21.971 75.901-54.671 3.496-10.478-2.165-21.806-12.643-25.301-10.477-3.495-21.806 2.165-25.301 12.643A39.952 39.952 0 01432 472.001H80c-22.056 0-40-17.944-40-40V156.57a59.713 59.713 0 0020 3.431h372c22.056 0 40 17.944 40 40v57.001h-67zm67 79.999h-67c-11.028.001-20-8.971-20-20 0-11.028 8.972-20 20-20h67v40zM167.128 120.002l119.119-72.393 21.297 36.041c.409.985.879 1.956 1.459 2.892a20.28 20.28 0 001.42 1.982l18.6 31.478H167.128zm208.357-.001l-22.121-37.436L387.14 61.62l35.588 58.381h-47.243z"/></svg>